<svg version="1.0" xmlns="http://www.w3.org/2000/svg" preserveAspectRatio="xMidYMid meet" viewBox="100 50.07 499.97 499.43">

<g transform="translate(0.000000,605.000000) scale(0.100000,-0.100000)" fill="#000000" stroke="none">
<path d="M1825 5534 c-418 -76 -747 -409 -815 -825 -6 -42 -10 -608 -10 -1650 0 -1376 2 -1598 15 -1674 69 -392 346 -697 731 -803 l99 -27 1655 0 1655 0 96 26 c176 49 379 172 489 296 101 114 190 280 231 433 23 84 23 89 27 803 3 630 1 725 -13 766 -69 209 -353 231 -458 36 -22 -40 -22 -46 -27 -755 -5 -703 -6 -716 -27 -772 -62 -165 -208 -293 -371 -327 -75 -16 -3129 -16 -3204 0 -137 29 -284 140 -341 259 -60 125 -57 31 -57 1727 0 1094 3 1568 11 1605 29 136 140 283 260 341 123 60 30 57 1729 57 1540 0 1556 0 1630 -21 134 -37 250 -130 311 -251 57 -113 59 -133 59 -724 0 -587 0 -588 56 -661 13 -18 46 -45 72 -60 40 -24 58 -28 122 -28 64 0 83 5 121 27 25 15 58 43 73 63 58 76 58 69 54 712 l-4 588 -27 100 c-89 334 -344 606 -662 708 -147 48 -126 47 -1814 46 -1334 -1 -1599 -3 -1666 -15z"/>
<path d="M3416 4284 c-57 -21 -102 -58 -133 -112 l-28 -47 -3 -412 -3 -413 -393 0 c-426 0 -442 -2 -513 -56 -18 -13 -45 -46 -60 -72 -24 -40 -28 -58 -28 -122 0 -64 4 -82 28 -122 15 -26 43 -59 62 -74 68 -52 80 -53 508 -54 l397 0 0 -392 c0 -240 4 -408 10 -430 16 -55 69 -119 123 -146 101 -52 212 -36 291 44 75 74 76 82 76 531 l0 393 393 0 c446 0 456 1 530 74 100 97 101 255 1 351 -75 74 -84 75 -531 75 l-393 0 0 388 c0 447 -2 465 -74 536 -69 69 -171 93 -260 60z"/>
</g>
</svg>