<svg version="1.1" id="Layer_1" xmlns="http://www.w3.org/2000/svg" xmlns:xlink="http://www.w3.org/1999/xlink" x="0px" y="0px" enable-background="new 0 0 512 512" xml:space="preserve" viewBox="1.02 30.63 512 452.85">
<path fill="#000000" opacity="1.000000" stroke="none" d=" M513.000000,65.533142   C508.986664,88.722710 501.481964,110.232330 490.672913,130.613297   C489.406433,133.001282 487.949890,135.134415 486.016541,137.026779   C483.187317,139.796082 480.051758,139.716736 476.820526,138.175827   C473.802734,136.736725 472.595947,134.079544 472.703979,130.813599   C472.834717,126.860764 474.634674,123.480133 476.414825,120.081245   C485.310760,103.095871 492.426788,85.488678 495.281830,65.861221   C481.824005,67.621948 469.391479,71.742226 457.192108,76.826859   C430.708710,87.865059 407.193359,103.625816 385.793427,122.476509   C368.324036,137.864883 353.063019,155.319702 339.456573,174.312210   C325.587769,193.670944 314.928436,214.501282 307.533112,237.070251   C307.179962,238.148010 307.030273,239.292419 306.715607,240.725662   C308.853973,240.312561 309.969360,238.875244 311.192108,237.652069   C351.956055,196.874115 392.714233,156.090378 433.462860,115.297165   C435.844147,112.913300 438.198120,110.617416 441.929413,110.651016   C445.049316,110.679123 448.166382,110.892105 449.451202,114.266304   C450.774506,117.741608 451.412354,121.411888 448.435608,124.505455   C444.969666,128.107422 441.395752,131.605637 437.861603,135.141800   C399.807190,173.217972 361.749969,211.291321 323.700836,249.372803   C322.088959,250.986008 320.548798,252.670883 318.307343,255.023361   C338.504791,249.706329 356.078979,240.944611 373.022186,230.751358   C395.394348,217.292007 414.994202,200.384613 433.025543,181.673355   C441.625519,172.749115 449.466644,163.077866 456.567871,152.863739   C460.222076,147.607742 465.310577,146.102982 469.769135,148.927872   C473.912811,151.553253 474.412476,157.216171 470.666748,162.540054   C458.479340,179.862335 444.322876,195.470123 428.829163,209.869202   C427.384979,211.211365 426.408691,212.341217 426.319458,214.389084   C425.914673,223.681320 425.200256,232.948395 425.291382,242.273514   C425.483582,261.938232 425.435181,281.606598 425.325653,301.272583   C425.220001,320.243744 426.153198,339.198639 426.630829,358.148041   C427.034302,374.154510 427.660919,390.263000 430.151764,406.203094   C430.762238,410.109589 432.201385,410.711548 435.512268,410.691589   C452.178253,410.591064 468.848969,410.869629 485.510712,410.586151   C501.577118,410.312836 501.523773,413.583710 502.690582,424.547546   C504.251099,439.211334 504.640625,453.849762 495.552673,466.747192   C489.079987,475.933044 480.174255,480.900879 469.004395,482.516846   C462.346497,483.480072 455.739594,483.339203 449.106659,483.341614   C344.107117,483.379944 239.107376,483.277893 134.108170,483.473480   C118.403580,483.502747 108.212746,476.017151 101.017899,462.934784   C93.789093,449.790710 90.474174,435.445679 88.038742,420.854889   C85.637398,406.468262 83.999763,391.980316 83.687500,377.383331   C83.536903,370.343414 85.817604,367.710571 91.455048,367.671478   C97.211998,367.631561 100.021843,370.671844 100.333099,377.290558   C101.197998,395.682281 103.204369,413.943359 107.426453,431.879333   C109.442665,440.444427 112.330040,448.725769 116.855972,456.439209   C123.499817,467.762268 133.668182,468.181000 143.987488,464.529480   C155.861481,460.327820 158.485626,450.441040 159.601410,439.637054   C160.168488,434.146027 159.297104,428.702393 158.172592,423.325775   C156.599869,415.806122 160.240005,411.065674 168.000443,410.675293   C169.829376,410.583313 171.666397,410.647980 173.499710,410.647980   C251.332718,410.647522 329.165710,410.648743 406.998718,410.646912   C413.858002,410.646759 413.574310,410.667572 412.853333,403.789093   C411.869019,394.397949 411.352692,384.957214 410.665710,375.535553   C409.527649,359.927002 410.354706,344.247528 409.472717,328.665466   C407.879944,300.525757 409.159790,272.399414 408.724487,244.272797   C408.640991,238.879349 410.602997,233.501831 409.016571,227.459442   C403.643494,229.550446 399.924164,233.630508 395.506744,236.596069   C368.275513,254.877289 339.430786,269.650848 306.727356,274.988525   C299.145020,276.226074 293.423157,278.751709 288.483521,284.376923   C284.203888,289.250519 279.375336,293.645111 274.746948,298.208374   C270.986511,301.915894 264.913635,302.486237 261.796234,299.498871   C258.528412,296.367371 258.985565,289.949646 262.868805,286.025513   C269.080231,279.748688 275.359161,273.538696 281.606506,267.297394   C282.313293,266.591278 283.267365,265.984253 283.647919,265.127502   C284.848297,262.424835 286.459076,259.418365 285.139954,256.634491   C283.969635,254.164566 280.905396,255.408783 278.716827,255.405563   C230.383820,255.334442 182.050674,255.356659 133.717545,255.336685   C127.342514,255.334045 124.039909,252.669998 123.681351,247.437119   C123.353455,242.651672 126.240364,239.216003 131.145325,238.710999   C132.795685,238.541092 134.475815,238.649124 136.142334,238.649063   C185.308792,238.647110 234.475601,238.567947 283.641205,238.772263   C288.494293,238.792435 290.398834,237.095627 291.531250,232.704330   C293.050598,226.812515 295.214294,221.086868 297.078491,215.360107   C294.906708,213.742706 292.846008,214.401047 290.940674,214.399673   C238.274261,214.361588 185.607803,214.378403 132.941360,214.364868   C126.436783,214.363190 123.027023,210.826004 123.696327,204.977524   C124.221252,200.390549 127.294205,198.471863 131.372864,197.769745   C132.994858,197.490540 134.697510,197.659302 136.363449,197.659195   C190.529892,197.655869 244.696640,197.576004 298.862244,197.788254   C304.008209,197.808395 306.652802,196.168671 308.767426,191.635025   C311.538361,185.694275 315.125000,180.133972 318.406250,174.329666   C315.921753,172.749069 313.534119,173.387207 311.292542,173.385330   C251.959503,173.335556 192.626007,173.235977 133.293961,173.477829   C127.081955,173.503174 122.901909,169.145004 123.661041,163.764084   C124.310127,159.163147 127.634514,157.914398 131.259033,157.078568   C133.332062,156.600525 135.556519,156.677872 137.712845,156.677185   C200.212585,156.657516 262.712372,156.631042 325.211945,156.731400   C328.839203,156.737228 331.736267,156.045502 333.820557,153.011490   C341.373962,142.016418 351.120575,132.900436 359.982788,123.061462   C366.611420,115.702286 374.603149,109.543129 382.182007,103.077164   C387.350555,98.667572 392.856628,94.653854 398.204834,90.454330   C399.078949,89.767967 400.169708,89.347145 399.853485,87.750893   C397.050171,73.601044 393.256531,59.930977 381.269287,50.403828   C378.342194,48.077469 374.765594,47.329689 370.961182,47.331059   C274.294922,47.365822 177.628662,47.353619 80.962410,47.370872   C79.338394,47.371162 77.639832,47.060959 75.703758,48.156067   C84.176201,61.418461 87.725662,76.379242 90.747612,91.497520   C93.085426,103.193138 94.448845,115.018318 95.386353,126.913628   C101.007576,198.236343 97.258583,269.683868 98.328857,341.066132   C98.466446,350.242920 96.261154,353.977203 91.067505,354.086792   C84.816635,354.218658 81.658936,349.683685 81.657181,340.446747   C81.647133,287.613617 82.037010,234.776276 81.456627,181.949539   C81.231224,161.434189 80.394585,140.850967 77.835793,120.405312   C77.366081,116.652145 76.795906,112.858475 76.615181,109.047119   C76.430740,105.157288 74.872185,103.227844 70.424370,103.283279   C52.094013,103.511688 33.757027,103.214470 15.426896,103.451874   C8.538630,103.541092 3.289499,101.927597 1.145271,94.313637   C1.000000,83.645775 1.000000,73.291542 1.236027,62.213280   C2.982810,57.840923 4.165518,54.011616 6.061219,50.575680   C14.186344,35.848980 27.690744,30.706415 43.536198,30.693958   C153.127090,30.607803 262.718079,30.649450 372.309052,30.649422   C381.554993,30.649418 389.596710,33.988010 396.209167,40.223656   C405.957825,49.416805 410.414001,61.611172 414.235260,74.047043   C414.718475,75.619720 414.707855,77.356148 416.630646,78.304558   C417.287842,77.959991 418.026367,77.609879 418.729309,77.198853   C441.229889,64.042267 464.773712,53.525303 490.697998,49.235565   C498.126923,48.006290 505.712952,45.618774 513.000000,50.000000   C513.000000,55.022091 513.000000,60.044186 513.000000,65.533142  M419.499908,466.648895   C433.329834,466.648193 447.165405,466.892548 460.988007,466.573853   C473.356628,466.288666 483.321686,459.939423 485.810089,447.129181   C486.652374,442.793030 486.575317,438.537262 486.627289,434.235413   C486.710205,427.375519 486.640533,427.359314 479.839569,427.358917   C380.864349,427.353424 281.889130,427.352356 182.913910,427.350708   C182.080795,427.350677 181.243271,427.414734 180.415375,427.350708   C177.395874,427.117249 176.189407,428.512695 176.336929,431.491577   C176.926392,443.393951 175.553207,454.942322 168.931320,466.648407   C252.760056,466.648407 335.629974,466.648407 419.499908,466.648895  M17.349752,76.518402   C17.349689,77.518166 17.348484,78.517929 17.349745,79.517693   C17.358730,86.640228 17.358891,86.645828 24.383610,86.647507   C38.380367,86.650864 52.377213,86.670891 66.373764,86.617111   C68.124702,86.610390 70.039520,87.212486 72.101456,85.422020   C68.684052,73.561012 66.180016,61.199879 56.192432,52.126888   C52.915073,49.149643 49.362335,47.451328 45.046642,47.376419   C28.995253,47.097816 16.806002,55.688370 17.349752,76.518402  z"/>
<path fill="#000000" opacity="1.000000" stroke="none" d=" M242.758301,124.193970   C240.598846,128.385086 236.836456,129.216324 233.259888,129.231277   C199.973740,129.370667 166.685791,129.439621 133.400635,129.206009   C125.051498,129.147400 120.905144,122.304962 124.734344,116.191757   C126.298233,113.695061 128.460968,112.647469 131.381714,112.650040   C166.166534,112.680710 200.951477,112.629593 235.736176,112.703285   C242.068283,112.716705 243.910339,115.773979 242.758301,124.193970  z"/>
<path fill="#000000" opacity="1.000000" stroke="none" d=" M316.997070,365.322510   C331.823517,364.131226 346.315796,364.885681 360.799164,364.666382   C365.964050,364.588196 371.131256,364.670807 376.297333,364.657593   C380.801178,364.646088 383.554535,366.942474 384.251068,371.265137   C385.045044,376.192749 382.888306,379.437622 378.305542,380.729889   C376.890808,381.128815 375.370178,381.317169 373.897430,381.320465   C356.899292,381.358551 339.900818,381.390228 322.902893,381.318298   C315.582825,381.287354 312.264038,377.888763 312.633453,371.568298   C312.805939,368.618011 314.877625,367.279877 316.997070,365.322510  z"/>
</svg>